<svg width="124" height="28" viewBox="0 0 124 28" fill="none" xmlns="http://www.w3.org/2000/svg">
<path d="M41.7422 21.2293C40.6302 21.2293 39.6572 21.0139 38.8232 20.583C38.0031 20.1382 37.3707 19.5127 36.9259 18.7065C36.4811 17.9003 36.2587 16.9482 36.2587 15.8501C36.2587 14.752 36.4811 13.8068 36.9259 13.0145C37.3707 12.2223 38.0031 11.6176 38.8232 11.2006C39.6572 10.7697 40.6302 10.5543 41.7422 10.5543C42.3955 10.5543 43.0557 10.6516 43.7229 10.8462C44.3901 11.0408 44.9322 11.3188 45.3492 11.6802L44.4735 13.8485C44.126 13.5705 43.7368 13.3551 43.3059 13.2022C42.875 13.0354 42.458 12.952 42.0549 12.952C41.2348 12.952 40.5954 13.2091 40.1368 13.7234C39.692 14.2238 39.4696 14.9397 39.4696 15.871C39.4696 16.7883 39.692 17.5111 40.1368 18.0393C40.5954 18.5536 41.2348 18.8108 42.0549 18.8108C42.4441 18.8108 42.8542 18.7343 43.2851 18.5814C43.7299 18.4285 44.126 18.2061 44.4735 17.9142L45.3492 20.0826C44.9322 20.444 44.3901 20.729 43.7229 20.9375C43.0557 21.132 42.3955 21.2293 41.7422 21.2293ZM49.9425 21L45.4806 10.7628H48.7958L51.3603 17.2679L54.0082 10.7628H57.1148L52.5904 21H49.9425Z" fill="#2D3748"/>
<path d="M62.3156 21V6.30092H63.7542L69.4045 16.9134L75.0131 6.30092H76.4517V21H74.8671V9.51179L69.9674 18.7274H68.8416L63.8793 9.53264V21H62.3156ZM83.0709 21.1876C82.3759 21.1876 81.7504 21.0556 81.1944 20.7915C80.6523 20.5135 80.2214 20.1382 79.9017 19.6656C79.582 19.193 79.4222 18.6648 79.4222 18.081C79.4222 17.3443 79.6098 16.7606 79.9851 16.3297C80.3743 15.8988 81.0067 15.593 81.8824 15.4123C82.772 15.2177 83.9813 15.1204 85.5103 15.1204H86.1775V14.474C86.1775 13.6122 85.9968 12.9937 85.6354 12.6184C85.2879 12.2292 84.7249 12.0346 83.9466 12.0346C83.335 12.0346 82.7442 12.125 82.1743 12.3057C81.6044 12.4725 81.0206 12.7504 80.4229 13.1396L79.8392 11.9095C80.3673 11.5342 81.0067 11.2354 81.7573 11.013C82.5218 10.7906 83.2516 10.6794 83.9466 10.6794C85.2531 10.6794 86.2192 10.9991 86.8447 11.6385C87.4841 12.2779 87.8038 13.2717 87.8038 14.62V21H86.2192V19.2486C85.9551 19.8463 85.545 20.3189 84.989 20.6664C84.4469 21.0139 83.8076 21.1876 83.0709 21.1876ZM83.3419 19.9158C84.1759 19.9158 84.857 19.6309 85.3852 19.061C85.9134 18.4772 86.1775 17.7405 86.1775 16.8509V16.2254H85.5311C84.4052 16.2254 83.5157 16.281 82.8624 16.3922C82.223 16.4895 81.7712 16.6702 81.5071 16.9343C81.2569 17.1845 81.1318 17.532 81.1318 17.9768C81.1318 18.5467 81.3264 19.0123 81.7156 19.3737C82.1187 19.7351 82.6608 19.9158 83.3419 19.9158ZM94.3563 21.1876C93.564 21.1876 92.8134 21.0764 92.1045 20.8541C91.3956 20.6317 90.8118 20.3189 90.3531 19.9158L90.8952 18.7274C91.3956 19.1305 91.9447 19.4293 92.5424 19.6239C93.1539 19.8046 93.7725 19.895 94.398 19.895C95.1903 19.895 95.788 19.749 96.1911 19.4571C96.5942 19.1652 96.7957 18.7691 96.7957 18.2687C96.7957 17.8795 96.6637 17.5737 96.3996 17.3513C96.1355 17.115 95.7185 16.9343 95.1486 16.8092L93.2512 16.3922C91.5277 16.0169 90.6659 15.1273 90.6659 13.7234C90.6659 12.806 91.0273 12.0694 91.7501 11.5134C92.4868 10.9574 93.4458 10.6794 94.6273 10.6794C95.3223 10.6794 95.9826 10.7906 96.6081 11.013C97.2474 11.2215 97.7756 11.5342 98.1926 11.9512L97.6297 13.1396C97.2266 12.7643 96.754 12.4794 96.2119 12.2848C95.6837 12.0763 95.1555 11.9721 94.6273 11.9721C93.8489 11.9721 93.2582 12.125 92.8551 12.4308C92.452 12.7365 92.2505 13.1396 92.2505 13.64C92.2505 14.4184 92.7648 14.9188 93.7933 15.1412L95.6907 15.5374C96.5803 15.732 97.2544 16.0447 97.7131 16.4756C98.1718 16.8926 98.4011 17.4625 98.4011 18.1853C98.4011 19.1166 98.0328 19.8533 97.2961 20.3954C96.5594 20.9236 95.5795 21.1876 94.3563 21.1876ZM105.187 21.1876C104.2 21.1876 103.345 20.9722 102.622 20.5413C101.899 20.1104 101.336 19.5058 100.933 18.7274C100.544 17.9351 100.349 17.0038 100.349 15.9335C100.349 14.8632 100.544 13.9389 100.933 13.1605C101.336 12.3682 101.899 11.7566 102.622 11.3257C103.345 10.8948 104.2 10.6794 105.187 10.6794C106.16 10.6794 107.007 10.8948 107.73 11.3257C108.467 11.7566 109.03 12.3682 109.419 13.1605C109.822 13.9389 110.024 14.8632 110.024 15.9335C110.024 17.0038 109.822 17.9351 109.419 18.7274C109.03 19.5058 108.467 20.1104 107.73 20.5413C107.007 20.9722 106.16 21.1876 105.187 21.1876ZM105.187 19.8324C106.132 19.8324 106.889 19.4988 107.459 18.8316C108.029 18.1505 108.314 17.1845 108.314 15.9335C108.314 14.6686 108.029 13.7026 107.459 13.0354C106.889 12.3682 106.132 12.0346 105.187 12.0346C104.228 12.0346 103.463 12.3682 102.893 13.0354C102.337 13.7026 102.059 14.6686 102.059 15.9335C102.059 17.1845 102.337 18.1505 102.893 18.8316C103.463 19.4988 104.228 19.8324 105.187 19.8324ZM112.56 21V10.867H114.208V12.5975C114.541 11.9582 115.014 11.4786 115.625 11.1589C116.237 10.8392 116.925 10.6794 117.689 10.6794C120.094 10.6794 121.296 12.0138 121.296 14.6825V21H119.608V14.7868C119.608 13.8416 119.42 13.1535 119.045 12.7226C118.683 12.2779 118.099 12.0555 117.293 12.0555C116.362 12.0555 115.618 12.3474 115.062 12.9311C114.52 13.501 114.249 14.2655 114.249 15.2246V21H112.56Z" fill="#2D3748"/>
<rect y="0.588379" width="27.3099" height="27.3099" rx="5.88575" fill="#2D3748"/>
<rect x="5.17969" y="5.76807" width="8.47549" height="8.47549" fill="#81E6D9"/>
<rect x="5.17969" y="14.2437" width="8.47549" height="8.47549" fill="#319795"/>
<rect x="13.6553" y="14.2437" width="8.47549" height="8.47549" fill="#81E6D9"/>
</svg>
